<svg version="1.2" baseProfile="tiny-ps" xmlns="http://www.w3.org/2000/svg" viewBox="0 0 209 54" width="209" height="54">
	<title>logo-svg</title>
	<style>
		tspan { white-space:pre }
		.txt0 { font-size: 32px;fill: #ffffff;font-weight: 600;font-family: "Poppins-SemiBold", "Poppins" } 
		.shp1 { fill: #ff3400 } 
		.shp2 { fill: #2584ff } 
	</style>
	<text id="Obenify" style="transform: matrix(1,0,0,1,70,35)" >
		<tspan x="0" y="0" class="txt0">O</tspan><tspan  y="0" class="txt0">b</tspan><tspan  y="0" class="txt0">e</tspan><tspan  y="0" class="txt0">n</tspan><tspan  y="0" class="txt0">i</tspan><tspan  y="0" class="txt0">f</tspan><tspan  y="0" class="txt0">y
</tspan>
	</text>
	<path id="Shape 1" class="shp1" d="M38.5 49C26.06 49 16 38.94 16 26.5C16 14.06 26.06 4 38.5 4C50.94 4 61 14.06 61 26.5C61 38.94 50.94 49 38.5 49Z" />
	<path id="Shape 1 copy" class="shp2" d="M38.5 41.85C30.01 41.85 23.15 34.99 23.15 26.5C23.15 18.01 30.01 11.15 38.5 11.15C46.99 11.15 53.85 18.01 53.85 26.5C53.85 34.99 46.99 41.85 38.5 41.85Z" />
</svg>